<svg height="480pt" viewBox="0 0 480 480" width="480pt" xmlns="http://www.w3.org/2000/svg"><path d="m456 79.96875h-20.167969c-16.695312-20.261719-41.578125-32-67.832031-32-1.726562 0-3.488281.066406-5.335938.191406-6.628906-14.125-18.859374-24.839844-33.738281-29.550781-14.878906-4.710937-31.046875-2.988281-44.597656 4.753906-24.351563-18.84375-55.40625-26.800781-85.820313-21.992187-30.414062 4.808594-57.492187 21.960937-74.84375 47.398437-30.113281-4.078125-60.195312 7.726563-79.496093 31.199219h-20.167969c-13.253906 0-24 10.746094-24 24v240c0 13.253906 10.746094 24 24 24h176v48h-72c-4.417969 0-8 3.582031-8 8v40h-16v16h272v-16h-16v-40c0-4.417969-3.582031-8-8-8h-72v-48h176c13.253906 0 24-10.746094 24-24v-240c0-13.253906-10.746094-24-24-24zm0 16c4.417969 0 8 3.582031 8 8v200h-112v-56c0-4.417969-3.582031-8-8-8h-48v-16h72c30.644531.054688 59.105469-15.867188 75.09375-42.011719 15.992188-26.144531 17.203125-58.730469 3.195312-85.988281zm-208 144v-16h32v16zm-16 0h-32v-16h32zm104 16v64h-192v-64zm-224-192c4.695312.007812 9.378906.472656 13.984375 1.386719 3.273437.640625 6.601563-.8125 8.351563-3.648438 14.679687-23.96875 39.148437-40.277343 66.917968-44.597656 27.773438-4.320313 56.039063 3.78125 77.304688 22.15625 2.816406 2.425781 6.933594 2.589844 9.9375.398437 10.285156-7.523437 23.550781-9.683593 35.691406-5.804687s21.699219 13.328125 25.714844 25.421875c1.21875 3.632812 4.835937 5.894531 8.632812 5.390625 26.730469-3.757813 53.316406 7.75 68.871094 29.808594 15.554688 22.0625 17.464844 50.96875 4.945312 74.882812-12.515624 23.914063-37.359374 38.816407-64.351562 38.605469h-72v-22.109375l12.945312-25.890625h28.191407c4.027343 15.601562 19.03125 25.777344 35.015625 23.746094s27.96875-15.632813 27.96875-31.746094-11.984375-29.714844-27.96875-31.742188c-15.984375-2.03125-30.988282 8.140626-35.015625 23.742188h-33.136719c-3.046875-.015625-5.839844 1.699219-7.199219 4.425781l-16 32c-.539062 1.113281-.8125 2.335938-.800781 3.574219v24h-32v-81.136719c15.601562-4.027343 25.777344-19.027343 23.746094-35.015625-2.03125-15.984375-15.632813-27.964844-31.746094-27.964844s-29.714844 11.980469-31.746094 27.964844c-2.03125 15.988282 8.144532 30.988282 23.746094 35.015625v81.136719h-32v-24c0-1.238281-.285156-2.464844-.839844-3.574219l-16-32c-1.355468-2.714843-4.128906-4.425781-7.160156-4.425781h-33.136719c-4.027343-15.601562-19.03125-25.773438-35.015625-23.742188-15.984375 2.027344-27.96875 15.628907-27.96875 31.742188s11.984375 29.714844 27.96875 31.746094 30.988282-8.144532 35.015625-23.746094h28.191407l12.945312 25.890625v22.109375h-72c-39.765625 0-72-32.234375-72-72s32.234375-72 72-72zm240 88c0-8.835938 7.164062-16 16-16s16 7.164062 16 16-7.164062 16-16 16-16-7.164062-16-16zm-112-40c-8.835938 0-16-7.164062-16-16s7.164062-16 16-16 16 7.164062 16 16-7.164062 16-16 16zm-112 40c0 8.835938-7.164062 16-16 16s-16-7.164062-16-16 7.164062-16 16-16 16 7.164062 16 16zm-104-56h9.710938c-14.007813 27.257812-12.796876 59.84375 3.195312 85.988281 15.988281 26.144531 44.449219 42.066407 75.09375 42.011719h72v16h-48c-4.417969 0-8 3.582031-8 8v56h-112v-200c0-4.417969 3.582031-8 8-8zm320 368h-208v-32h208zm-80-48h-48v-48h48zm192-64h-432c-4.417969 0-8-3.582031-8-8v-24h112v8c0 4.417969 3.582031 8 8 8h208c4.417969 0 8-3.582031 8-8v-8h112v24c0 4.417969-3.582031 8-8 8zm0 0"/><path d="m176 311.96875c13.253906 0 24-10.746094 24-24s-10.746094-24-24-24-24 10.746094-24 24 10.746094 24 24 24zm0-32c4.417969 0 8 3.582031 8 8s-3.582031 8-8 8-8-3.582031-8-8 3.582031-8 8-8zm0 0"/><path d="m224 311.96875h96c4.417969 0 8-3.582031 8-8v-32c0-4.417969-3.582031-8-8-8h-96c-4.417969 0-8 3.582031-8 8v32c0 4.417969 3.582031 8 8 8zm8-32h80v16h-80zm0 0"/></svg>